<?xml version="1.0" encoding="UTF-8" standalone="no"?>
<!DOCTYPE svg PUBLIC "-//W3C//DTD SVG 1.1//EN"
 "http://www.w3.org/Graphics/SVG/1.1/DTD/svg11.dtd">
<!-- Generated by graphviz version 2.40.1 (20161225.0304)
 -->
<!-- Title: dependency&#45;cruiser output Pages: 1 -->
<svg width="184pt" height="184pt"
 viewBox="0.00 0.00 184.02 183.50" xmlns="http://www.w3.org/2000/svg" xmlns:xlink="http://www.w3.org/1999/xlink">
<g id="graph0" class="graph" transform="scale(1 1) rotate(0) translate(4 179.5)">
<title>dependency&#45;cruiser output</title>
<polygon fill="#ffffff" stroke="transparent" points="-4,4 -4,-179.5 180.0186,-179.5 180.0186,4 -4,4"/>
<g id="clust1" class="cluster">
<title>cluster_src</title>
<path fill="#ffffff" stroke="#000000" stroke-width="2" d="M20,-54.5C20,-54.5 156.0186,-54.5 156.0186,-54.5 162.0186,-54.5 168.0186,-60.5 168.0186,-66.5 168.0186,-66.5 168.0186,-155.5 168.0186,-155.5 168.0186,-161.5 162.0186,-167.5 156.0186,-167.5 156.0186,-167.5 20,-167.5 20,-167.5 14,-167.5 8,-161.5 8,-155.5 8,-155.5 8,-66.5 8,-66.5 8,-60.5 14,-54.5 20,-54.5"/>
<text text-anchor="middle" x="88.0093" y="-156.3" font-family="Helvetica,sans-Serif" font-weight="bold" font-size="9.00" fill="#000000">src</text>
</g>
<g id="clust2" class="cluster">
<title>cluster_src/utils</title>
<path fill="#ffffff" stroke="#000000" stroke-width="2" d="M90,-62.5C90,-62.5 148.0186,-62.5 148.0186,-62.5 154.0186,-62.5 160.0186,-68.5 160.0186,-74.5 160.0186,-74.5 160.0186,-130.5 160.0186,-130.5 160.0186,-136.5 154.0186,-142.5 148.0186,-142.5 148.0186,-142.5 90,-142.5 90,-142.5 84,-142.5 78,-136.5 78,-130.5 78,-130.5 78,-74.5 78,-74.5 78,-68.5 84,-62.5 90,-62.5"/>
<text text-anchor="middle" x="119.0093" y="-131.3" font-family="Helvetica,sans-Serif" font-weight="bold" font-size="9.00" fill="#000000">utils</text>
</g>
<!-- http -->
<g id="node1" class="node">
<title>http</title>
<path fill="#ffffcc" stroke="#c0c0c0" d="M140.3426,-46C140.3426,-46 97.6759,-46 97.6759,-46 94.8426,-46 92.0093,-43.1667 92.0093,-40.3333 92.0093,-40.3333 92.0093,-34.6667 92.0093,-34.6667 92.0093,-31.8333 94.8426,-29 97.6759,-29 97.6759,-29 140.3426,-29 140.3426,-29 143.1759,-29 146.0093,-31.8333 146.0093,-34.6667 146.0093,-34.6667 146.0093,-40.3333 146.0093,-40.3333 146.0093,-43.1667 143.1759,-46 140.3426,-46"/>
<text text-anchor="middle" x="119.0093" y="-34.8" font-family="Helvetica,sans-Serif" font-size="9.00" fill="#c0c0c0">http</text>
</g>
<!-- path -->
<g id="node2" class="node">
<title>path</title>
<path fill="#ffffcc" stroke="#c0c0c0" d="M140.3426,-17C140.3426,-17 97.6759,-17 97.6759,-17 94.8426,-17 92.0093,-14.1667 92.0093,-11.3333 92.0093,-11.3333 92.0093,-5.6667 92.0093,-5.6667 92.0093,-2.8333 94.8426,0 97.6759,0 97.6759,0 140.3426,0 140.3426,0 143.1759,0 146.0093,-2.8333 146.0093,-5.6667 146.0093,-5.6667 146.0093,-11.3333 146.0093,-11.3333 146.0093,-14.1667 143.1759,-17 140.3426,-17"/>
<text text-anchor="middle" x="119.0093" y="-5.8" font-family="Helvetica,sans-Serif" font-size="9.00" fill="#c0c0c0">path</text>
</g>
<!-- src/index.js -->
<g id="node3" class="node">
<title>src/index.js</title>
<g id="a_node3"><a xlink:href="src/index.js" xlink:title="index.js">
<path fill="#ffffcc" stroke="#000000" d="M64.3333,-84C64.3333,-84 21.6667,-84 21.6667,-84 18.8333,-84 16,-81.1667 16,-78.3333 16,-78.3333 16,-72.6667 16,-72.6667 16,-69.8333 18.8333,-67 21.6667,-67 21.6667,-67 64.3333,-67 64.3333,-67 67.1667,-67 70,-69.8333 70,-72.6667 70,-72.6667 70,-78.3333 70,-78.3333 70,-81.1667 67.1667,-84 64.3333,-84"/>
<text text-anchor="middle" x="43" y="-72.8" font-family="Helvetica,sans-Serif" font-size="9.00" fill="#000000">index.js</text>
</a>
</g>
</g>
<!-- src/index.js&#45;&gt;http -->
<g id="edge3" class="edge">
<title>src/index.js&#45;&gt;http</title>
<path fill="none" stroke="#000000" stroke-dasharray="5,2" stroke-opacity="0.200000" d="M60.2477,-66.8772C70.9378,-61.5328 84.7886,-54.6083 96.3576,-48.8244"/>
<polygon fill="#000000" fill-opacity="0.200000" stroke="#000000" stroke-opacity="0.200000" points="97.4022,-50.6501 101.8299,-46.0887 95.5241,-46.8934 97.4022,-50.6501"/>
</g>
<!-- src/index.js&#45;&gt;path -->
<g id="edge4" class="edge">
<title>src/index.js&#45;&gt;path</title>
<path fill="none" stroke="#000000" stroke-dasharray="5,2" stroke-opacity="0.200000" d="M46.6193,-66.6848C51.8606,-54.969 62.6457,-34.3691 78,-22.5 80.4032,-20.6423 83.0683,-19.0224 85.8531,-17.6114"/>
<polygon fill="#000000" fill-opacity="0.200000" stroke="#000000" stroke-opacity="0.200000" points="87.0724,-19.3666 91.6917,-14.9994 85.3572,-15.5327 87.0724,-19.3666"/>
</g>
<!-- src/utils/messages.js -->
<g id="node4" class="node">
<title>src/utils/messages.js</title>
<g id="a_node4"><a xlink:href="src/utils/messages.js" xlink:title="messages.js">
<path fill="#ffffcc" stroke="#000000" d="M146.3612,-117C146.3612,-117 91.6574,-117 91.6574,-117 88.8241,-117 85.9907,-114.1667 85.9907,-111.3333 85.9907,-111.3333 85.9907,-105.6667 85.9907,-105.6667 85.9907,-102.8333 88.8241,-100 91.6574,-100 91.6574,-100 146.3612,-100 146.3612,-100 149.1945,-100 152.0278,-102.8333 152.0278,-105.6667 152.0278,-105.6667 152.0278,-111.3333 152.0278,-111.3333 152.0278,-114.1667 149.1945,-117 146.3612,-117"/>
<text text-anchor="middle" x="119.0093" y="-105.8" font-family="Helvetica,sans-Serif" font-size="9.00" fill="#000000">messages.js</text>
</a>
</g>
</g>
<!-- src/index.js&#45;&gt;src/utils/messages.js -->
<g id="edge1" class="edge">
<title>src/index.js&#45;&gt;src/utils/messages.js</title>
<path fill="none" stroke="#000000" stroke-width="2" stroke-opacity="0.200000" d="M57.3704,-84.0111C63.5929,-87.509 71.0346,-91.4464 78,-94.5 80.6182,-95.6478 83.3628,-96.7634 86.1384,-97.8309"/>
<polygon fill="#000000" fill-opacity="0.200000" stroke="#000000" stroke-width="2" stroke-opacity="0.200000" points="85.4932,-99.8313 91.849,-99.9497 86.9543,-95.8936 85.4932,-99.8313"/>
</g>
<!-- src/utils/user.js -->
<g id="node5" class="node">
<title>src/utils/user.js</title>
<g id="a_node5"><a xlink:href="src/utils/user.js" xlink:title="user.js">
<path fill="#ffffcc" stroke="#000000" d="M140.3426,-88C140.3426,-88 97.6759,-88 97.6759,-88 94.8426,-88 92.0093,-85.1667 92.0093,-82.3333 92.0093,-82.3333 92.0093,-76.6667 92.0093,-76.6667 92.0093,-73.8333 94.8426,-71 97.6759,-71 97.6759,-71 140.3426,-71 140.3426,-71 143.1759,-71 146.0093,-73.8333 146.0093,-76.6667 146.0093,-76.6667 146.0093,-82.3333 146.0093,-82.3333 146.0093,-85.1667 143.1759,-88 140.3426,-88"/>
<text text-anchor="middle" x="119.0093" y="-76.8" font-family="Helvetica,sans-Serif" font-size="9.00" fill="#000000">user.js</text>
</a>
</g>
</g>
<!-- src/index.js&#45;&gt;src/utils/user.js -->
<g id="edge2" class="edge">
<title>src/index.js&#45;&gt;src/utils/user.js</title>
<path fill="none" stroke="#000000" stroke-width="2" stroke-opacity="0.200000" d="M70.012,-76.9215C75.1032,-77.1894 80.4822,-77.4725 85.7386,-77.7491"/>
<polygon fill="#000000" fill-opacity="0.200000" stroke="#000000" stroke-width="2" stroke-opacity="0.200000" points="85.726,-79.8513 91.8281,-78.0696 85.9468,-75.6571 85.726,-79.8513"/>
</g>
</g>
</svg>
